<svg fill="none" xmlns="http://www.w3.org/2000/svg" viewBox="0 0 1855 1337"><g filter="url(#Group__a)"><ellipse cx="927.5" cy="668.5" rx="313.5" ry="572.5" transform="rotate(-90 927.5 668.5)" fill="#CF7E7B"/></g><mask id="Group__c" style="mask-type:alpha" maskUnits="userSpaceOnUse" x="459" y="584" width="943" height="168"><path fill-rule="evenodd" clip-rule="evenodd" d="M930.5 604c-195.227 0-361.951 26.516-429.5 63.946 67.549 37.43 234.273 63.947 429.5 63.947 195.23 0 361.95-26.517 429.5-63.947C1292.45 630.516 1125.73 604 930.5 604Z" fill="url(#Group__b)" stroke="#fff" stroke-opacity=".5" stroke-width="40"/></mask><g mask="url(#Group__c)"><ellipse cx="916.5" cy="685" rx="532.5" ry="305" fill="#fff" fill-opacity=".6"/><ellipse cx="929.5" cy="685" rx="211.5" ry="211" fill="#030303" fill-opacity=".4"/><ellipse cx="929.5" cy="685" rx="130.5" ry="130" fill="url(#Group__d)"/><g filter="url(#Group__e)"><ellipse rx="20.865" ry="20.392" transform="matrix(-.62518 -.78048 .7999 -.60015 1045.36 632.524)" fill="#FFF4F5" fill-opacity=".7"/></g></g><defs><linearGradient id="Group__b" x1="930.5" y1="604" x2="930.5" y2="731.893" gradientUnits="userSpaceOnUse"><stop offset=".167" stop-color="#fff"/><stop offset=".495" stop-color="#D2D2D2"/><stop offset=".734"/><stop offset=".927" stop-color="#E4E4E4"/></linearGradient><linearGradient id="Group__d" x1="915.129" y1="897.128" x2="1058.68" y2="607.069" gradientUnits="userSpaceOnUse"><stop stop-color="#030303"/><stop offset="1" stop-opacity="0"/></linearGradient><filter id="Group__a" x=".913" y=".913" width="1853.17" height="1335.17" filterUnits="userSpaceOnUse" color-interpolation-filters="sRGB"><feFlood flood-opacity="0" result="BackgroundImageFix"/><feBlend in="SourceGraphic" in2="BackgroundImageFix" result="shape"/><feGaussianBlur stdDeviation="177.043" result="effect1_foregroundBlur_536_64579"/></filter><filter id="Group__e" x="1001.34" y="589.023" width="88.031" height="87.002" filterUnits="userSpaceOnUse" color-interpolation-filters="sRGB"><feFlood flood-opacity="0" result="BackgroundImageFix"/><feBlend in="SourceGraphic" in2="BackgroundImageFix" result="shape"/><feGaussianBlur stdDeviation="11.565" result="effect1_foregroundBlur_536_64579"/></filter></defs></svg>