<svg width="232" height="54" viewBox="0 0 232 54" fill="none" xmlns="http://www.w3.org/2000/svg">
<g id="KBLLR-WHT" clip-path="url(#clip0_909_22479)">
<g id="Vector">
<path d="M51.372 53.3216V0.500006H83.2682C96.2027 0.500006 100.063 3.27653 100.063 14.3826C100.063 22.3736 96.2704 26.3691 88.4149 27.1817C94.916 28.1298 98.1666 31.9898 98.1666 39.5745C98.1666 50.5451 94.7129 53.3216 83.2682 53.3216H51.372ZM65.5932 11.3352V21.8995H78.9341C83.3359 21.8995 85.2321 20.2743 85.2321 16.5497C85.2321 11.877 84.6226 11.3352 78.9341 11.3352H65.5932ZM65.5932 32.7348V42.4864H77.5797C82.7941 42.4864 83.3359 42.0124 83.3359 37.5429C83.3359 34.1569 81.6429 32.7348 77.5797 32.7348H65.5932Z" fill="white"/>
<path d="M0 0.500006H14.2212V11.6061L22.3476 20.6806L33.86 0.500006H49.5711L32.2347 30.026L48.2167 53.3216H31.7607L14.2212 27.588V53.3216H0V0.500006Z" fill="white"/>
<path d="M101.864 53.3216V0.5H141.318V12.6896H116.085V53.3216H101.864Z" fill="white"/>
<path d="M142.464 53.3216V0.5H182.419V12.6896H156.685V53.3216H142.464Z" fill="white"/>
<path d="M214.423 53.3216H184.22V0.5H198.441V19.123H209.005C216.387 19.123 217.132 18.5135 217.132 12.6896V0.5H232.03V13.5022C232.03 20.2743 228.441 23.3894 221.398 24.1343C228.779 25.1501 232.03 29.281 232.03 38.0169C232.03 50.2742 228.509 53.3216 214.423 53.3216ZM198.441 29.9582V41.8092H210.766C217.132 41.8092 217.809 41.1997 217.809 35.9853C217.809 30.5677 217.132 29.9582 210.766 29.9582H198.441Z" fill="white"/>
<path d="M51.372 53.3216V0.500006H83.2682C96.2027 0.500006 100.063 3.27653 100.063 14.3826C100.063 22.3736 96.2704 26.3691 88.4149 27.1817C94.916 28.1298 98.1666 31.9898 98.1666 39.5745C98.1666 50.5451 94.7129 53.3216 83.2682 53.3216H51.372ZM65.5932 11.3352V21.8995H78.9341C83.3359 21.8995 85.2321 20.2743 85.2321 16.5497C85.2321 11.877 84.6226 11.3352 78.9341 11.3352H65.5932ZM65.5932 32.7348V42.4864H77.5797C82.7941 42.4864 83.3359 42.0124 83.3359 37.5429C83.3359 34.1569 81.6429 32.7348 77.5797 32.7348H65.5932Z" stroke="white" stroke-opacity="0.951" stroke-width="0.5"/>
<path d="M0 0.500006H14.2212V11.6061L22.3476 20.6806L33.86 0.500006H49.5711L32.2347 30.026L48.2167 53.3216H31.7607L14.2212 27.588V53.3216H0V0.500006Z" stroke="white" stroke-opacity="0.951" stroke-width="0.5"/>
<path d="M101.864 53.3216V0.5H141.318V12.6896H116.085V53.3216H101.864Z" stroke="white" stroke-opacity="0.951" stroke-width="0.5"/>
<path d="M142.464 53.3216V0.5H182.419V12.6896H156.685V53.3216H142.464Z" stroke="white" stroke-opacity="0.951" stroke-width="0.5"/>
<path d="M214.423 53.3216H184.22V0.5H198.441V19.123H209.005C216.387 19.123 217.132 18.5135 217.132 12.6896V0.5H232.03V13.5022C232.03 20.2743 228.441 23.3894 221.398 24.1343C228.779 25.1501 232.03 29.281 232.03 38.0169C232.03 50.2742 228.509 53.3216 214.423 53.3216ZM198.441 29.9582V41.8092H210.766C217.132 41.8092 217.809 41.1997 217.809 35.9853C217.809 30.5677 217.132 29.9582 210.766 29.9582H198.441Z" stroke="white" stroke-opacity="0.951" stroke-width="0.5"/>
</g>
</g>
<defs>
<clipPath id="clip0_909_22479">
<rect width="232" height="53" fill="white" transform="translate(0 0.5)"/>
</clipPath>
</defs>
</svg>
