<svg fill="none" xmlns="http://www.w3.org/2000/svg" viewBox="0 0 1594 1152"><g filter="url(#Group__a)"><ellipse cx="797.334" cy="576.167" rx="221.167" ry="442.334" transform="rotate(-90 797.334 576.167)" fill="red"/></g><mask id="Group__c" style="mask-type:alpha" maskUnits="userSpaceOnUse" x="419" y="536" width="736" height="249"><path fill-rule="evenodd" clip-rule="evenodd" d="M786.973 556.777c-154.977 0-287.327 43.141-340.95 104.036 53.623 60.896 185.973 104.036 340.95 104.036 154.978 0 287.327-43.14 340.947-104.036-53.62-60.895-185.969-104.036-340.947-104.036Z" fill="url(#Group__b)" stroke="#fff" stroke-opacity=".5" stroke-width="40"/></mask><g mask="url(#Group__c)"><ellipse cx="791.227" cy="661.201" rx="373.5" ry="214" fill="#fff" fill-opacity=".8"/><circle cx="791.727" cy="593.201" r="204" fill="#030303" fill-opacity=".4"/><circle cx="791.617" cy="593.335" r="96.093" fill="url(#Group__d)"/><g filter="url(#Group__e)"><ellipse rx="20.865" ry="20.392" transform="matrix(-.62518 -.78048 .7999 -.60015 893.084 585.725)" fill="#FFF4F5" fill-opacity=".7"/></g></g><defs><linearGradient id="Group__b" x1="786.973" y1="556.777" x2="786.973" y2="764.849" gradientUnits="userSpaceOnUse"><stop offset=".167" stop-color="#fff"/><stop offset=".495" stop-color="#D2D2D2"/><stop offset=".734"/><stop offset=".927" stop-color="#E4E4E4"/></linearGradient><linearGradient id="Group__d" x1="781.035" y1="750.136" x2="887.391" y2="536.055" gradientUnits="userSpaceOnUse"><stop stop-color="#030303"/><stop offset="1" stop-opacity="0"/></linearGradient><filter id="Group__a" x=".913" y=".913" width="1592.84" height="1150.51" filterUnits="userSpaceOnUse" color-interpolation-filters="sRGB"><feFlood flood-opacity="0" result="BackgroundImageFix"/><feBlend in="SourceGraphic" in2="BackgroundImageFix" result="shape"/><feGaussianBlur stdDeviation="177.043" result="effect1_foregroundBlur_537_64594"/></filter><filter id="Group__e" x="849.066" y="542.224" width="88.031" height="87.002" filterUnits="userSpaceOnUse" color-interpolation-filters="sRGB"><feFlood flood-opacity="0" result="BackgroundImageFix"/><feBlend in="SourceGraphic" in2="BackgroundImageFix" result="shape"/><feGaussianBlur stdDeviation="11.565" result="effect1_foregroundBlur_537_64594"/></filter></defs></svg>