<svg fill="none" xmlns="http://www.w3.org/2000/svg" viewBox="0 0 1748 1290"><g filter="url(#Group__a)"><ellipse cx="874" cy="645" rx="290" ry="519" transform="rotate(-90 874 645)" fill="#4FD5E5"/></g><mask id="Group__c" style="mask-type:alpha" maskUnits="userSpaceOnUse" x="486" y="540" width="776" height="228"><path fill-rule="evenodd" clip-rule="evenodd" d="M874 560c-163.182 0-302.539 38.956-359 93.946 56.461 54.99 195.818 93.947 359 93.947 163.18 0 302.54-38.957 359-93.947C1176.54 598.956 1037.18 560 874 560Z" fill="url(#Group__b)" stroke="#fff" stroke-opacity=".5" stroke-width="40"/></mask><g mask="url(#Group__c)"><ellipse cx="873.5" cy="630" rx="532.5" ry="305" fill="#fff" fill-opacity=".6"/><ellipse cx="889.5" cy="654" rx="211.5" ry="211" fill="#030303" fill-opacity=".4"/><ellipse cx="889.5" cy="654" rx="130.5" ry="130" fill="url(#Group__d)"/><g filter="url(#Group__e)"><ellipse rx="20.865" ry="20.392" transform="matrix(-.62518 -.78048 .7999 -.60015 1005.36 601.524)" fill="#FFF4F5" fill-opacity=".7"/></g></g><defs><linearGradient id="Group__b" x1="874" y1="560" x2="874" y2="747.893" gradientUnits="userSpaceOnUse"><stop offset=".167" stop-color="#fff"/><stop offset=".495" stop-color="#D2D2D2"/><stop offset=".734"/><stop offset=".927" stop-color="#E4E4E4"/></linearGradient><linearGradient id="Group__d" x1="875.129" y1="866.128" x2="1018.68" y2="576.069" gradientUnits="userSpaceOnUse"><stop stop-color="#030303"/><stop offset="1" stop-opacity="0"/></linearGradient><filter id="Group__a" x=".913" y=".913" width="1746.17" height="1288.17" filterUnits="userSpaceOnUse" color-interpolation-filters="sRGB"><feFlood flood-opacity="0" result="BackgroundImageFix"/><feBlend in="SourceGraphic" in2="BackgroundImageFix" result="shape"/><feGaussianBlur stdDeviation="177.043" result="effect1_foregroundBlur_537_64582"/></filter><filter id="Group__e" x="961.34" y="558.023" width="88.031" height="87.002" filterUnits="userSpaceOnUse" color-interpolation-filters="sRGB"><feFlood flood-opacity="0" result="BackgroundImageFix"/><feBlend in="SourceGraphic" in2="BackgroundImageFix" result="shape"/><feGaussianBlur stdDeviation="11.565" result="effect1_foregroundBlur_537_64582"/></filter></defs></svg>